PathFileType	4	(X/Y/Z)	2014001\dynamic\2014001_C1_02.trc
DataRate	CameraRate	NumFrames	NumMarkers	Units	OrigDataRate	OrigDataStartFrame	OrigNumFrames
100.000000	100.000000	4	52	mm	100.000000	106	426
Frame#	Time	L_IAS			L_IPS			R_IPS			R_IAS			L_FTC			L_FLE			L_FME			L_FAX			L_TTC			L_FAL			L_TAM			L_FCC			L_FM1			L_FM2			L_FM5			R_FTC			R_FLE			R_FME			R_FAX			R_TTC			R_FAL			R_TAM			R_FCC			R_FM1			R_FM2			R_FM5			CV7			TV10			SXS			SJN			L_SIA			L_SRS			L_SAA			L_SAE			L_HLE			L_HME			L_UOA			L_RSP			L_UHE			L_HM2			L_HM5			R_SIA			R_SRS			R_SAA			R_SAE			R_HLE			R_HME			R_UOA			R_RSP			R_UHE			R_HM2			R_HM5			
		X1	Y1	Z1	X2	Y2	Z2	X3	Y3	Z3	X4	Y4	Z4	X5	Y5	Z5	X6	Y6	Z6	X7	Y7	Z7	X8	Y8	Z8	X9	Y9	Z9	X10	Y10	Z10	X11	Y11	Z11	X12	Y12	Z12	X13	Y13	Z13	X14	Y14	Z14	X15	Y15	Z15	X16	Y16	Z16	X17	Y17	Z17	X18	Y18	Z18	X19	Y19	Z19	X20	Y20	Z20	X21	Y21	Z21	X22	Y22	Z22	X23	Y23	Z23	X24	Y24	Z24	X25	Y25	Z25	X26	Y26	Z26	X27	Y27	Z27	X28	Y28	Z28	X29	Y29	Z29	X30	Y30	Z30	X31	Y31	Z31	X32	Y32	Z32	X33	Y33	Z33	X34	Y34	Z34	X35	Y35	Z35	X36	Y36	Z36	X37	Y37	Z37	X38	Y38	Z38	X39	Y39	Z39	X40	Y40	Z40	X41	Y41	Z41	X42	Y42	Z42	X43	Y43	Z43	X44	Y44	Z44	X45	Y45	Z45	X46	Y46	Z46	X47	Y47	Z47	X48	Y48	Z48	X49	Y49	Z49	X50	Y50	Z50	X51	Y51	Z51	X52	Y52	Z52	

107	1.06	436.3176574707034	872.8264160156255	321.1728515625001	357.7079467773439	908.7534790039067	144.8186798095704	267.8040466308595	907.8742065429692	143.2290954589844	196.5128326416017	893.9288940429692	324.2379760742189	481.1225585937502	782.2382202148442	241.7608337402345	418.5256347656252	431.8136291503909	218.9095458984376	304.1192932128907	427.9115905761721	243.516082763672	416.8870239257815	372.9719848632814	193.6365509033204	369.8206481933595	350.6594543457032	252.9910583496095	344.1985473632814	59.94896316528323	138.4544525146485	258.6575317382814	75.76932525634768	164.7032623291016	295.2144775390626	22.91502380371094	95.58528137207034	276.4811096191407	26.26133346557619	278.2312316894532	339.7815246582032	36.78804397583009	285.2703552246095	384.6869812011721	22.66914176940919	227.7252349853517	130.1612396240235	796.7817993164067	247.6749572753907	136.0276794433594	461.3081054687502	366.4461364746095	253.0923461914064	445.2847595214846	388.6891784667971	127.9245986938477	395.8623352050784	358.8737792968751	172.8627014160157	397.3221130371096	427.3907775878909	150.1718139648438	80.32291412353518	375.6985473632814	229.4959259033204	96.96264648437506	420.884460449219	208.1321411132814	24.96041107177736	352.1545715332032	192.6126708984376	66.04579162597659	530.3043212890627	137.3038787841797	78.36605072021487	517.7723388671877	104.4925231933594	51.64382171630862	468.3970642089846	314.4585876464845	1381.554809570313	175.5452117919922	320.7222900390626	1148.9453125	108.074691772461	326.3302612304689	1150.764892578125	338.5963745117189	320.6080932617189	1313.085571289063	299.2809448242189	416.2130432128909	1190.455688476563	101.9930801391602	406.7497253417971	1321.046020507813	127.0977783203126	515.473815917969	1317.393920898438	204.2252044677736	499.8793029785159	1326.384887695313	245.2233428955079	572.1936645507815	1040.982543945313	201.7639160156251	499.534362792969	1013.953796386719	164.9135437011719	549.3389282226565	1011.441345214844	164.0382843017579	513.6667480468752	806.323364257813	273.6069335937501	586.5447998046877	803.5720214843755	237.948211669922	514.9669189453127	723.0158691406252	300.9324951171876	587.4378662109377	725.584411621094	227.8562774658204	205.5154724121095	1190.147094726563	103.659034729004	226.2467041015626	1313.299560546875	132.7304840087891	124.8957672119141	1304.794921875	214.2869110107423	137.1330566406251	1308.490234375	263.3406982421876	69.332145690918	1009.289611816407	198.4843902587892	146.0579986572266	994.3150024414067	174.5456237792969	100.3841094970704	987.8815917968755	168.6808624267579	90.80719757080081	795.510131835938	284.7554931640626	32.25112533569337	797.4469604492192	228.3314361572267	70.9858093261719	706.0667724609377	309.4494018554689	32.11456680297853	718.5892333984377	215.3975982666017	
108	1.07	436.139343261719	872.5705566406255	323.477020263672	357.1365051269532	908.272827148438	147.2680053710938	267.2473449707032	907.4072875976567	145.7954101562501	196.2974853515626	893.8518066406255	326.9690551757814	480.7971496582034	781.9240112304692	244.1014556884767	418.1632995605471	431.5669860839846	220.8020324707032	303.7565002441407	427.5868225097659	245.4222412109376	416.5360412597659	372.7713623046876	195.3572235107423	369.4277343750001	350.2653198242189	254.5574188232423	344.0184936523439	59.97008132934573	138.6602172851563	258.4718017578126	75.59583282470706	164.8831176757813	295.1215209960939	23.00799369812012	95.62918090820315	276.4572143554689	26.14699745178224	278.1910095214845	339.780487060547	36.75682067871095	285.2969665527345	384.6466064453127	22.67738723754884	227.6884765625001	129.8018188476563	796.6354370117192	251.0548706054689	136.2086944580079	461.8785400390627	371.6176757812501	253.3736114501954	446.188171386719	393.3026123046877	128.0602111816407	396.1708679199221	365.0418090820314	173.4607543945313	398.761657714844	433.235534667969	150.3905639648438	80.82298278808597	386.7875976562502	229.9186248779298	98.28005218505865	431.2593078613284	208.2341766357423	25.1551971435547	363.8014526367189	193.6603088378907	68.792839050293	541.4232177734377	138.3108520507813	80.80854034423831	529.0547485351565	105.2241821289063	53.4247741699219	480.2012329101565	313.7950744628907	1381.215087890625	178.2592315673829	320.0889282226564	1148.702026367188	110.5658416748047	325.9253540039064	1150.325927734375	341.1547241210939	320.0703735351564	1312.666381835938	301.9374389648439	415.5579833984377	1190.242309570313	104.4389190673829	406.0735473632815	1320.799926757813	129.6669464111329	514.876892089844	1317.046997070313	206.7525787353517	499.3015136718752	1326.009887695313	247.7723083496095	571.9079589843752	1040.793090820313	204.0440368652345	499.4319763183596	1013.807312011719	166.8121032714844	549.225280761719	1011.468017578125	166.1572265625001	513.9497070312502	805.511596679688	274.0594787597657	586.9884033203127	803.293823242188	238.7421875000001	515.3140869140627	721.895446777344	300.6394042968751	588.242858886719	725.3957519531252	228.0146484375001	204.9053955078126	1189.833618164063	106.2900390625001	225.5695037841798	1312.979736328125	135.4528350830079	124.3002243041993	1304.333129882813	217.0689239501954	136.5388183593751	1308.006713867188	266.120330810547	69.07520294189456	1008.809326171875	200.604705810547	145.8263092041016	993.9990844726567	176.6903228759766	100.1707992553712	987.4926757812505	170.7734527587891	90.94132995605472	794.8969726562505	286.5899658203126	32.35161590576173	796.8408813476567	230.1467132568361	71.25104522705081	705.4025878906252	311.0683898925782	32.38629150390626	717.9983520507815	217.1015777587892	
109	1.08	435.9190979003909	872.3035278320317	325.8139648437501	356.5486755371095	907.7749633789067	149.7510528564454	266.6773376464845	906.9290161132817	148.378158569336	196.0409698486329	893.758422851563	329.7054443359376	480.4533386230471	781.6037597656255	246.4777069091798	417.7878112792971	431.3121032714846	222.7088623046876	303.3826293945314	427.2517089843752	247.3412628173829	416.1736450195315	372.5609130859376	197.0849456787111	369.0214843750001	349.8609924316407	256.1327514648439	343.8280029296876	59.99386215209964	138.8682708740235	258.2844848632814	75.41667938232425	165.0525512695313	295.0271301269532	23.10356140136719	95.66577911376956	276.4415588378907	26.04833030700685	278.1658935546876	339.7665100097657	36.72192001342775	285.3095703125001	384.6018676757815	22.68517494201661	227.6525421142579	129.4208221435547	796.438110351563	254.3738708496095	136.3466949462891	462.4702148437502	376.8576660156251	253.5975341796876	447.1020507812502	398.0220642089846	128.1518554687501	396.5328369140627	371.2283935546876	174.0120086669922	400.1719665527346	439.0952453613284	150.5996093750001	81.42814636230472	397.5341796875002	230.3177032470704	99.6709823608399	441.2787780761721	208.3135986328126	25.48854827880861	375.0482788085939	194.7088470458986	71.49650573730472	552.1462402343752	139.3094482421876	83.22904205322268	539.9654541015627	105.9575500488282	55.2322807312012	491.6252136230471	313.0993652343751	1380.863403320313	181.0269317626954	319.4395751953126	1148.45849609375	113.0901718139649	325.4731445312501	1149.861083984375	343.745819091797	319.4873046875001	1312.227783203125	304.6446228027345	414.8895263671877	1190.032104492188	106.9414672851563	405.3746643066409	1320.552001953125	132.3037414550782	514.2474365234377	1316.694580078125	209.3615722656251	498.6846618652346	1325.625732421875	250.4015502929689	571.5871582031252	1040.593994140625	206.3739624023439	499.2777404785159	1013.639404296875	168.8084259033204	549.0581665039065	1011.47119140625	168.3426666259766	514.2053833007815	804.7273559570317	274.705780029297	587.3961181640627	803.025512695313	239.6787261962892	515.6665039062502	720.8326416015627	300.5449218750001	588.993103027344	725.219665527344	228.3515167236329	204.2676696777345	1189.514892578125	108.9546432495118	224.8624114990236	1312.654541015625	138.2154235839844	123.6681594848633	1303.853393554688	219.8872070312501	135.9071350097657	1307.50537109375	268.935028076172	68.79011535644534	1008.291748046875	202.8282623291017	145.5643463134766	993.6403808593755	178.9465026855469	99.9287948608399	987.0518188476567	172.9783630371094	91.07810211181643	794.2909545898442	288.643524169922	32.4485206604004	796.2084960937505	232.1765899658204	71.51897430419925	704.7462158203127	312.9342346191407	32.66525650024415	717.3726196289065	219.0675201416017	
110	1.09	435.6575317382815	872.0234375000005	328.1843566894532	355.9429626464845	907.267211914063	152.2683258056641	266.0907287597657	906.442260742188	150.9831695556641	195.7457275390626	893.6423339843755	332.453338623047	480.0904235839846	781.2785644531255	248.8841400146486	417.4011230468752	431.0498046875002	224.6244506835939	302.9999389648439	426.9068603515627	249.2703704833986	415.8034362792971	372.3434448242189	198.8154602050782	368.6060485839845	349.4470214843751	257.7119445800782	343.6298828125001	60.01898574829104	139.0761108398438	258.0955505371095	75.23699188232425	165.2111968994141	294.9328002929689	23.20097732543946	95.69664001464847	276.434051513672	25.9647789001465	278.1597290039064	339.7398071289064	36.68458557128908	285.3082580566407	384.5541687011721	22.6927661895752	227.6184539794923	129.0148010253907	796.1889038085942	257.6329040527345	136.441635131836	463.0722656250002	382.1524658203126	253.7617034912111	448.0140380859377	402.8362121582034	128.1980285644532	396.9390869140627	377.420379638672	174.5119628906251	401.541198730469	444.9569396972659	150.7886047363282	82.1148376464844	407.9409179687502	230.6854553222657	101.1059112548829	450.9463500976565	208.3609924316407	25.93459320068361	385.8965148925784	195.7499084472657	74.13795471191409	562.4824218750002	140.2912292480469	85.61192321777347	550.5111083984377	106.6822052001954	57.04633331298831	502.6760864257815	312.3709411621095	1380.500244140625	183.8495330810547	318.7732849121095	1148.213134765625	115.6519622802735	324.9759521484376	1149.371826171875	346.3713684082032	318.8599548339845	1311.770263671875	307.4037475585939	414.2081604003909	1189.825317382813	109.503402709961	404.6529235839846	1320.3037109375	135.0101928710938	513.585632324219	1316.339233398438	212.0527954101564	498.0293273925784	1325.234619140625	253.1114654541017	571.2316894531252	1040.38720703125	208.7522277832032	499.0705871582034	1013.452880859375	170.9013061523438	548.8374633789065	1011.451599121094	170.5936279296876	514.4265136718752	803.974243164063	275.5530090332032	587.759948730469	802.7660522460942	240.7610168457032	516.0195922851565	719.8343505859377	300.6710815429689	589.6763305664065	725.0533447265627	228.8734436035157	203.6034393310548	1189.190185546875	111.6547546386719	224.1259002685548	1312.322998046875	141.0200195312501	123.0002059936524	1303.35498046875	222.7434234619142	135.2387695312501	1306.98583984375	271.7859802246095	68.47527313232425	1007.737365722657	205.1590423583986	145.2701568603516	993.238159179688	181.3167266845704	99.65597534179693	986.5585937500005	175.2991333007813	91.20744323730472	793.6928710937505	290.9126586914064	32.5354690551758	795.5512084960942	234.4217529296876	71.77778625488284	704.0976562500002	315.0447692871095	32.94268798828126	716.7138671875002	221.2940826416017	
